inDegrees=no
num_controls=7
num_derivatives=13
num_iterations=125
num_multipliers=7
num_parameters=0
num_slacks=7
num_states=26
objective=5.452912
objective_accelerations=0.799375
objective_balance=0.021373
objective_effort=0.189173
objective_height=4.368721
objective_ligament=0.074271
solver_duration=1381.926051
status=Solve_Succeeded
success=true
DataType=double
version=3
OpenSimVersion=4.4-2022-07-23-0e9fedc
endheader
time	/jointset/ground_pelvis/pelvis_tilt/value	/jointset/ground_pelvis/pelvis_tx/value	/jointset/ground_pelvis/pelvis_ty/value	/jointset/hip_l/hip_flexion_l/value	/jointset/hip_l/hip_adduction_l/value	/jointset/hip_l/hip_rotation_l/value	/jointset/back/lumbar_extension/value	/jointset/patellofemoral_l/patellar_flexion_l/value	/jointset/knee_l/knee_flexion_l/value	/jointset/knee_l/knee_adduction_l/value	/jointset/knee_l/knee_rotation_l/value	/jointset/ankle_l/ankle_angle_l/value	/jointset/subtalar_l/subtalar_angle_l/value	/jointset/ground_pelvis/pelvis_tilt/speed	/jointset/ground_pelvis/pelvis_tx/speed	/jointset/ground_pelvis/pelvis_ty/speed	/jointset/hip_l/hip_flexion_l/speed	/jointset/hip_l/hip_adduction_l/speed	/jointset/hip_l/hip_rotation_l/speed	/jointset/back/lumbar_extension/speed	/jointset/patellofemoral_l/patellar_flexion_l/speed	/jointset/knee_l/knee_flexion_l/speed	/jointset/knee_l/knee_adduction_l/speed	/jointset/knee_l/knee_rotation_l/speed	/jointset/ankle_l/ankle_angle_l/speed	/jointset/subtalar_l/subtalar_angle_l/speed	/forceset/tau_hip_flexion_l	/forceset/tau_hip_adduction_l	/forceset/tau_hip_rotation_l	/forceset/tau_knee_flexion_l	/forceset/tau_ankle_angle_l	/forceset/tau_subtalar_angle_l	/forceset/tau_lumbar_extension	lambda_cid13_p0	lambda_cid13_p1	lambda_cid13_p2	lambda_cid13_p3	lambda_cid13_p4	lambda_cid13_p5	lambda_cid14_p0	/jointset/ground_pelvis/pelvis_tilt/accel	/jointset/ground_pelvis/pelvis_tx/accel	/jointset/ground_pelvis/pelvis_ty/accel	/jointset/hip_l/hip_flexion_l/accel	/jointset/hip_l/hip_adduction_l/accel	/jointset/hip_l/hip_rotation_l/accel	/jointset/back/lumbar_extension/accel	/jointset/patellofemoral_l/patellar_flexion_l/accel	/jointset/knee_l/knee_flexion_l/accel	/jointset/knee_l/knee_adduction_l/accel	/jointset/knee_l/knee_rotation_l/accel	/jointset/ankle_l/ankle_angle_l/accel	/jointset/subtalar_l/subtalar_angle_l/accel	gamma_cid13_p0	gamma_cid13_p1	gamma_cid13_p2	gamma_cid13_p3	gamma_cid13_p4	gamma_cid13_p5	gamma_cid14_p0
1.5	-0.3777846780611308	0.0495518430596354	0.7816473194019284	1.066028502907665	-0.3588378041987482	-0.04334686157951991	-0.3324056019901872	0.8481016339407292	0.8481016339407461	-0.03200948099931023	-0.1735845831272359	0.2806677694657434	0.1563278198118638	0.5597859768700403	0.2806878880002804	0.5362046762570214	-2.474168905801675	-0.01856332580844636	-0.6177130772336445	0.6144726405716995	-2.28778083354895	-2.287780833549404	-0.3434565601769197	0.02124318826793538	-0.5569335162637598	-0.2452163445237114	-0.1435068322277709	0.03473325486237725	-0.0009040949041347781	-0.1230889860793724	-0.04724784681682601	0.01903142942365514	0.1324313626225912	-37.6027353107311	-3.919932220551658	2.900895477428777	-2.678063000723808	-426.7161299730324	-60.56933262911834	-9.01415241460586	0.6591228533865925	0.6193614131530955	-0.8276858160667698	-1.350542089559959	0.3078960076540476	-0.6207540290618623	1.644491177822645	-1.202103178523908	-1.202103178523817	-0.1313791041440052	0.2908109664398593	-0.6067483531103006	0.4354695932522076	7.177031886364759e-07	-1.583172398362357e-07	-8.674486450843801e-06	-4.658647206733994e-07	1.760686790483582e-06	1.976636087174772e-06	1.015567965199643e-06
1.51	-0.3721539458589188	0.05238921591286514	0.7869669031772828	1.041221007923559	-0.3590108707827744	-0.04954692070800414	-0.3261806562944085	0.8251657948368071	0.825165794836788	-0.03546125877516779	-0.1733560043838523	0.2750677570765035	0.1538933445812052	0.5662557388910698	0.2867292850286439	0.527589604700177	-2.486957257111775	-0.01602842702488935	-0.6222376869682883	0.6304177053741202	-2.299053713944171	-2.299053713943895	-0.346840236393513	0.02452298030776295	-0.5629777890103077	-0.2416205570610983	-0.138835146374935	0.03457523826572414	0.0001128628253767933	-0.1195549507120855	-0.04752032708768592	0.01746388693090007	0.128528641691974	-37.63094006210368	-3.340912424714541	2.930460721300827	-2.141971497630782	-423.085085790494	-59.51138930276405	-9.973787221644413	0.6252533061960921	0.5878339945633643	-0.8964207525134544	-1.186958645089415	0.2308326637948749	-0.3581054764087953	1.554695150617923	-1.040089438784052	-1.040089438674391	-0.4333015550669062	0.3525382193476899	-0.5895746501302629	0.331368612679605	7.194833285191764e-07	-2.872029556671927e-08	-8.608181739425255e-06	-4.395860315204619e-07	1.813660860028248e-06	2.271994250740334e-06	1.005170215502288e-06
1.52	-0.3664616459505629	0.05528526376575681	0.7921967356516649	1.016296834027679	-0.3591576792089438	-0.05579018413995072	-0.3197992237467781	0.8021271851351792	0.8021271851351106	-0.03894516124838985	-0.1730934327406592	0.2694100403768589	0.1514967742831569	0.5720995181014751	0.2924228879326666	0.5182544160624082	-2.497504688156027	-0.01331169423784061	-0.6263539379326529	0.6457700109431502	-2.308334953089925	-2.30833495308892	-0.3498814995960779	0.02804176821132626	-0.5684743783450017	-0.237635358001939	-0.1341634605220492	0.03441722166928599	0.00112982055399445	-0.1160209153447723	-0.04779280735848949	0.01589634443846202	0.1246259207613553	-37.65111188149627	-2.768534074356179	2.96707018614862	-1.671389198788205	-419.3710301929244	-58.5879126172029	-10.93155048081054	0.5339262912619734	0.5498025882846161	-0.9717092322517007	-0.902358036390525	0.3442628083526076	-0.5390822750058449	1.52593933114471	-0.8037749286304039	-0.803774928630302	-0.06289650133825374	0.3386101391870771	-0.4972116707398553	0.5133519125613941	7.074550845956339e-07	6.798464953349587e-07	-8.280973636595306e-06	-3.290942438479062e-07	1.820988044205323e-06	2.724378861134235e-06	1.021334480520932e-06
1.53	-0.3607140846624074	0.05823686206245432	0.7973298400741564	0.9912774242792096	-0.3592771092977008	-0.06207409901342005	-0.3132679504819425	0.7790051880582988	0.7790051880581531	-0.04245802532345209	-0.1727960858656948	0.2637003527019772	0.1491412375645447	0.5772740369900307	0.297871129136799	0.5082610055356008	-2.506046802679764	-0.01060366172959677	-0.6301815726420963	0.6603482203745681	-2.315763880101557	-2.315763880100439	-0.3528474997265525	0.03156867064835864	-0.5733435926471004	-0.2334750689422994	-0.1281958690948742	0.03098510247856481	0.002317129110822598	-0.1154819549102044	-0.04463849425334516	0.01556545390988005	0.1199320313254584	-36.47957582072925	-2.915749369637667	3.088533905915746	-2.313958089080432	-416.1226271084201	-59.62430367421995	-11.88527645311614	0.4884730665511814	0.5384841306479693	-1.028624843307719	-0.7804724376079946	0.230534773420878	-0.2663630579905217	1.403298502355743	-0.6675821556904156	-0.6675821556731718	-0.4367348799644035	0.3795813630557728	-0.4637226471132271	0.3673511339738969	6.807554328779585e-07	2.003568748283301e-06	-7.676555680390749e-06	-1.29126038998257e-07	1.779815412679332e-06	3.343604071283242e-06	1.065720886175326e-06
1.54	-0.3549189265096013	0.06124217262002869	0.8023599168152974	0.9661825265300508	-0.3593701668010914	-0.068388642031786	-0.3065949877721567	0.7558178755976237	0.7558178755974443	-0.04600520602212045	-0.1724594997529173	0.2579455836166415	0.1468273004827922	0.5816188910345355	0.3031653401080371	0.4976488797921598	-2.51260228829317	-0.008037177166956396	-0.632479566914622	0.674107899934564	-2.321398029843642	-2.321398029842411	-0.3567448242995028	0.03588961576916774	-0.5774906604359548	-0.2293154306303198	-0.1222282776676725	0.02755298328798065	0.003504437667488432	-0.1149429944756365	-0.04148418114818102	0.01523456338147255	0.1152381418895501	-35.301546805306	-3.062141041796352	3.207633611813864	-3.002185965492771	-412.7521063759934	-60.76940910594693	-12.83376871599097	0.3679933224519643	0.5189965417054307	-1.095452275578452	-0.5050322543244775	0.3159532192321006	-0.2331541876221111	1.362233356860516	-0.4448194747206897	-0.4448194747207246	-0.249161389833269	0.4974186759424712	-0.3527823680913332	0.5132217630293398	4.742974278126756e-07	3.807176497294114e-06	-5.062174459406873e-06	2.326078450439342e-07	1.300771815239366e-06	3.369466786831371e-06	9.271918777226594e-07
1.55	-0.3490844515521594	0.06429876070585422	0.8072806793162902	0.9410342390377442	-0.3594352610367479	-0.07473189438846521	-0.2997874995076709	0.7325847674957806	0.7325847674957182	-0.04958163029878358	-0.1720825143139527	0.2521532366663259	0.1445591600969847	0.5852208461515782	0.308043305974583	0.4864030354349906	-2.516660610227535	-0.004978866405036354	-0.6359697159082445	0.6872641428492323	-2.324852926974653	-2.324852926973746	-0.3586017084428477	0.03958984861614614	-0.5809244617331695	-0.2243070132315788	-0.1190416195089702	0.02890965522997202	0.00460622516074416	-0.1092546429931711	-0.04546257107390217	0.01267492321367968	0.1122458535183004	-36.64606411787957	-1.877066999302292	3.203735176728914	-1.234666080322482	-409.6441934215084	-58.60979293058834	-13.77667490045473	0.3480219142977136	0.4560679925652688	-1.154284099619006	-0.2970439201699535	0.3000008902112995	-0.3765227506072167	1.273478242304123	-0.2403020738210394	-0.240302073869371	-0.1619421671354432	0.3192563392955993	-0.330248676085394	0.4940089928162749	6.072653736863935e-08	6.163695796116001e-06	-1.31965998568694e-07	7.807239246775222e-07	3.172247135941967e-07	2.711672715122006e-06	5.779125008423053e-07
1.56	-0.3432156119819699	0.06740090272703381	0.8120859566569446	0.9158572059746584	-0.3594699259876713	-0.08110396373412972	-0.2928522171173368	0.7093282149743668	0.7093282149742997	-0.0531782214654218	-0.1716659403962845	0.2463282377699285	0.1423409753380702	0.5884918135872916	0.3122761271788512	0.4745518477243688	-2.518351402448974	-0.001951320221585969	-0.6382429647168552	0.699666725105225	-2.326086913766876	-2.326086913766294	-0.3607782022081774	0.04380731147191626	-0.5840210496523587	-0.2193243052520484	-0.1158549613501573	0.03026632717218388	0.005708012652524135	-0.1035662915106592	-0.04944096099956479	0.01011528304621629	0.109253565147097	-37.98415659522195	-0.7002116247548622	3.209249955653978	0.5078738203564381	-406.5087991438338	-56.45384615114948	-14.71453658205564	0.3017957861861957	0.3899676092496212	-1.216520946268977	-0.03152631173950748	0.3098003035384239	0.01022584938034933	1.211501225125523	-0.0006374069630920697	-0.0006374069630923369	-0.3130833142301085	0.6008646777008327	-0.2853396924865428	0.5080798791871948	-1.183929163560503e-07	7.528200512141188e-06	1.972228872791692e-06	1.060083482959931e-06	-9.81226339724271e-08	2.595905121004984e-06	4.610045157584736e-07
1.57	-0.337316127440358	0.07054277799631237	0.8167699653367162	0.8906740231078005	-0.3594753323109622	-0.08749241467841054	-0.2857974027068503	0.6860697635467223	0.6860697635466952	-0.05680019478326902	-0.1712051611034019	0.2404744522428292	0.1401715950655266	0.5912582855996235	0.3160473020896442	0.4621700565237164	-2.517903923061983	0.0008935736449156131	-0.6394394977021047	0.7111504332643795	-2.325266624910684	-2.32526662491022	-0.3635154795315078	0.04833322237433748	-0.5866036705772493	-0.214487164399983	-0.1103872176649026	0.02736816629891694	0.006635902344551859	-0.1027539798243728	-0.04719847390140738	0.00930134099675272	0.1048799874976386	-37.18572901934598	-0.5644232569464128	3.276591074610624	0.2023562275906506	-403.9122069396981	-57.06227190883545	-15.64695786479747	0.242082616187902	0.3631429266472481	-1.260909648549263	0.1401001030760373	0.2745633881147922	-0.1828410127325969	1.094947052646742	0.1737271632039898	0.1737271631866047	-0.2377206755797635	0.3761876600151929	-0.2245712418063992	0.4800350243232969	-4.448074181559413e-09	7.652686999670511e-06	5.439067573048673e-07	1.00349738955337e-06	1.967797110591237e-07	3.157670623878383e-06	6.345607704202921e-07
1.58	-0.331393376237144	0.07372085511363101	0.8213277758161637	0.8655067580426412	-0.359451743803592	-0.09389248058060425	-0.2786321229265096	0.6628295880338513	0.6628295880339542	-0.06044627502109214	-0.1706995760288528	0.2345988709166173	0.1380522869687266	0.5931451459091964	0.3195164967868667	0.4493122076594508	-2.51516784210865	0.003847645907770213	-0.6405659562975713	0.7217597990769435	-2.322431730802768	-2.322431730802423	-0.3655995862226453	0.05276846781685302	-0.5883802094748026	-0.2093098701036424	-0.1049194739796781	0.02447000542564125	0.007563792036952056	-0.1019416681381277	-0.04495598680327297	0.00848739894726069	0.1005064098481514	-36.38642633198647	-0.4275013506737921	3.342281532350097	-0.1072842295502958	-401.2965008713665	-57.70828642663609	-16.56293231864931	0.1258734456344429	0.3295715665352578	-1.311732478991649	0.4261940015289725	0.3316359828091344	0.02424072733703507	1.036632755807518	0.4022836433816719	0.4022836433815585	-0.1824491877914308	0.5827315857197289	-0.1241232870194219	0.5761105680421684	5.473992742153682e-08	7.489988039479348e-06	-3.131147417766635e-07	9.421101596240695e-07	3.548197672606691e-07	3.375355610377986e-06	7.167299059868266e-07
